<svg xmlns="http://www.w3.org/2000/svg" width="1352" height="1352" viewBox="0 0 1352 1352" version="1.1"><path d="M 456.696 407.250 C 455.768 407.938, 453.390 412.550, 451.410 417.500 C 449.430 422.450, 446.980 428.300, 445.965 430.500 C 438.762 446.122, 436.581 451.124, 434.968 455.707 C 433.961 458.572, 431.342 464.647, 429.149 469.207 C 426.956 473.768, 424.841 479.075, 424.450 481 C 424.059 482.925, 422.898 485.573, 421.870 486.885 C 420.841 488.197, 420 489.701, 420 490.227 C 420 490.754, 416.674 498.681, 412.608 507.842 C 405.321 524.264, 401.252 533.724, 396.411 545.500 C 395.055 548.800, 393.057 553.164, 391.972 555.198 C 390.888 557.232, 390 559.532, 390 560.309 C 390 561.085, 388.949 563.270, 387.665 565.162 C 386.380 567.055, 385.040 570.050, 384.686 571.818 C 384.333 573.585, 382.950 577.387, 381.613 580.266 C 374.272 596.074, 373 599.049, 373 600.414 C 373 601.237, 371.875 603.569, 370.500 605.595 C 369.125 607.621, 368 610.026, 368 610.940 C 368 611.853, 367.604 613.028, 367.121 613.550 C 366.637 614.073, 365.666 616.298, 364.962 618.495 C 364.259 620.692, 362.629 624.472, 361.342 626.894 C 360.054 629.316, 358.990 632.018, 358.978 632.899 C 358.966 633.780, 358.076 635.625, 357 637 C 355.924 638.375, 355.030 640.175, 355.013 641 C 354.996 641.825, 353.875 644.750, 352.522 647.500 C 351.169 650.250, 350.048 652.836, 350.031 653.247 C 349.994 654.133, 345.041 665.087, 340.922 673.390 C 339.315 676.630, 338 680.159, 338 681.233 C 338 682.306, 337.100 684.329, 336 685.727 C 334.900 687.126, 334 688.896, 334 689.660 C 334 690.425, 332.038 695.202, 329.640 700.276 C 327.241 705.349, 324.938 710.625, 324.520 712 C 323.539 715.233, 320.394 722.548, 318.070 727 C 317.066 728.925, 315.678 732.300, 314.987 734.500 C 314.296 736.700, 311.765 742.677, 309.363 747.783 C 306.961 752.889, 304.577 758.929, 304.065 761.206 C 303.554 763.482, 302.465 765.720, 301.646 766.178 C 300.827 766.637, 299.836 768.472, 299.445 770.256 C 299.054 772.040, 297.893 775.068, 296.867 776.985 C 295.840 778.902, 295 780.868, 295 781.355 C 295 781.842, 293.033 786.348, 290.628 791.370 C 288.223 796.391, 285.464 802.975, 284.496 806 C 283.527 809.025, 282.384 811.950, 281.955 812.500 C 281.526 813.050, 279.543 817.325, 277.548 822 C 275.554 826.675, 272.853 832.750, 271.546 835.500 C 265.257 848.737, 264 851.624, 264 852.827 C 264 854.155, 259.689 863.828, 255.396 872.135 C 254.078 874.685, 253 877.430, 253 878.236 C 253 879.043, 251.875 881.818, 250.500 884.404 C 248.650 887.884, 248 890.634, 248 894.988 C 248 904.403, 250.737 909.265, 258.188 913.086 C 261.762 914.919, 267.116 914.979, 431.146 915.012 L 600.416 915.046 603.333 912.128 L 606.250 909.211 603.733 903.856 C 602.348 900.910, 600.246 896.250, 599.060 893.500 C 597.875 890.750, 596.092 886.925, 595.098 885 C 594.105 883.075, 592.980 880.150, 592.598 878.500 C 592.217 876.850, 590.818 873.250, 589.490 870.500 C 588.162 867.750, 585.442 861.225, 583.445 856 C 581.448 850.775, 579.181 845.790, 578.407 844.921 C 577.633 844.053, 577 842.553, 577 841.589 C 577 839.785, 572.823 829.415, 568.465 820.400 C 567.109 817.595, 565.996 814.445, 565.991 813.400 C 565.986 812.355, 564.875 809.250, 563.522 806.500 C 562.169 803.750, 561.048 800.768, 561.031 799.872 C 561.014 798.977, 560.328 797.687, 559.507 797.006 C 558.686 796.325, 557.526 793.907, 556.929 791.634 C 556.333 789.360, 553.404 782.034, 550.422 775.353 C 547.440 768.673, 544.998 762.823, 544.997 762.353 C 544.992 761.227, 539.655 748.320, 537.615 744.500 C 536.733 742.850, 536.010 741.007, 536.006 740.405 C 536.003 739.803, 535.148 738.539, 534.107 737.597 C 532.289 735.951, 532.077 736.112, 528.688 741.692 C 526.749 744.887, 524.840 748.850, 524.446 750.500 C 524.053 752.150, 523.122 754.204, 522.378 755.065 C 521.634 755.926, 520.501 758.176, 519.860 760.065 C 519.219 761.954, 517.863 764.694, 516.847 766.154 C 515.831 767.614, 515 769.380, 515 770.079 C 515 770.777, 513.175 774.894, 510.944 779.227 C 508.713 783.560, 505.125 791.419, 502.971 796.693 C 500.817 801.967, 498.425 807.006, 497.654 807.891 C 496.883 808.776, 495.685 811.300, 494.990 813.500 C 493.199 819.172, 489.459 826.374, 487.427 828.063 C 486.055 829.203, 480.762 829.565, 461.832 829.816 C 438.115 830.129, 437.932 830.115, 432.449 827.605 C 426.488 824.876, 424.694 822.192, 423.393 814.058 C 422.651 809.414, 423.342 807.378, 431.095 791.380 C 433.793 785.814, 436.015 780.864, 436.034 780.380 C 436.053 779.896, 436.937 777.700, 438 775.500 C 439.063 773.300, 439.949 770.825, 439.970 770 C 439.991 769.175, 440.962 766.933, 442.130 765.019 C 443.297 763.104, 444.879 759.729, 445.646 757.519 C 446.963 753.725, 447.889 751.632, 453.620 739.500 C 454.919 736.750, 456.280 733.150, 456.644 731.500 C 457.007 729.850, 458.136 727.427, 459.152 726.115 C 460.169 724.803, 461.003 723.228, 461.006 722.615 C 461.010 722.002, 461.730 720.150, 462.608 718.500 C 463.485 716.850, 464.883 713.250, 465.713 710.500 C 466.544 707.750, 467.985 704.375, 468.916 703 C 470.723 700.330, 473.438 694.100, 474.581 690 C 474.964 688.625, 477.400 683, 479.993 677.500 C 482.586 672, 485.290 665.700, 486.001 663.500 C 486.712 661.300, 488.128 657.932, 489.147 656.015 C 490.166 654.098, 491.014 651.848, 491.031 651.015 C 491.048 650.182, 492.171 647.700, 493.526 645.500 C 494.881 643.300, 495.992 640.796, 495.995 639.935 C 495.998 639.074, 497.964 634.574, 500.363 629.935 C 502.763 625.296, 505.530 618.462, 506.512 614.750 C 507.494 611.038, 508.623 608, 509.022 608 C 509.421 608, 511.203 604.288, 512.984 599.750 C 514.764 595.212, 517.249 589.250, 518.505 586.500 C 521.770 579.352, 524.785 571.903, 525.589 569 C 526.513 565.661, 531.990 556, 532.959 556 C 534.244 556, 538.706 563.248, 540.040 567.500 C 540.730 569.700, 542.128 573.068, 543.147 574.985 C 544.166 576.902, 545 579.263, 545 580.231 C 545 581.199, 546.834 586.381, 549.075 591.746 C 551.316 597.110, 553.839 603.525, 554.681 606 C 557.283 613.642, 561.184 623.448, 562.052 624.529 C 562.506 625.095, 564.287 629.595, 566.009 634.529 C 567.730 639.463, 569.806 644.733, 570.621 646.241 C 571.436 647.749, 572.782 651.271, 573.613 654.068 C 574.444 656.866, 575.994 660.582, 577.058 662.327 C 578.122 664.072, 578.996 666.175, 579 667 C 579.004 667.825, 580.354 671.200, 582 674.500 C 583.646 677.800, 584.994 681.331, 584.996 682.346 C 584.998 683.361, 585.834 685.386, 586.853 686.846 C 587.873 688.306, 588.977 691.235, 589.308 693.356 C 589.638 695.476, 590.716 698.401, 591.702 699.856 C 592.689 701.310, 594.448 705.200, 595.612 708.500 C 599.820 720.433, 600.251 721.561, 602.114 725.500 C 603.154 727.700, 604.004 730.169, 604.003 730.986 C 604.001 731.803, 605.108 734.728, 606.462 737.486 C 608.657 741.954, 610.408 746.363, 618.188 767 C 619.329 770.025, 621.328 774.756, 622.631 777.514 C 623.934 780.272, 625 782.994, 625 783.564 C 625 784.133, 627.218 789.656, 629.929 795.838 C 632.640 802.020, 635.159 808.523, 635.527 810.289 C 635.895 812.055, 636.759 814.400, 637.447 815.500 C 638.134 816.600, 639.281 819.300, 639.995 821.500 C 640.710 823.700, 642.128 827.068, 643.147 828.985 C 644.166 830.902, 645 833.007, 645 833.664 C 645 835.564, 658.832 869.982, 662.416 877 C 663.119 878.375, 665.450 884.852, 667.597 891.393 C 670.513 900.277, 672.149 903.768, 674.064 905.193 C 676.526 907.025, 679.193 907.100, 741.064 907.062 C 801.403 907.026, 805.584 906.912, 806.821 905.262 C 808.706 902.748, 807.680 897.945, 803.555 889.974 C 801.608 886.211, 798.932 880.290, 797.609 876.816 C 793.679 866.501, 789.830 857.633, 788.369 855.527 C 787.616 854.443, 787 852.618, 787 851.472 C 787 850.326, 785.875 847.864, 784.500 846 C 783.125 844.136, 782 841.683, 782 840.548 C 782 839.413, 780.933 836.463, 779.629 833.992 C 778.325 831.521, 776.925 828.375, 776.518 827 C 776.111 825.625, 775.175 823.150, 774.438 821.500 C 772.806 817.845, 769.340 809.089, 767.115 803 C 766.211 800.525, 764.690 797.387, 763.736 796.027 C 762.781 794.668, 762 793.168, 762 792.695 C 762 791.768, 757.127 780.081, 753.951 773.390 C 752.878 771.130, 752 768.603, 752 767.775 C 752 766.947, 751.185 765.197, 750.189 763.885 C 749.193 762.573, 747.809 759.475, 747.113 757 C 746.417 754.525, 745.012 750.700, 743.989 748.500 C 739.999 739.911, 737.306 733.374, 736.607 730.579 C 736.205 728.972, 735.004 726.549, 733.938 725.194 C 732.872 723.839, 731.997 721.778, 731.994 720.615 C 731.990 719.452, 731.267 717.150, 730.385 715.500 C 728.312 711.620, 723.385 699.953, 720.983 693.242 C 719.949 690.350, 718.404 686.988, 717.551 685.770 C 716.698 684.552, 716 682.978, 716 682.274 C 716 681.569, 714.029 676.832, 711.621 671.746 C 709.212 666.661, 706.921 661.375, 706.529 660 C 705.901 657.794, 698.871 640.706, 693.983 629.500 C 693.023 627.300, 691.902 624.375, 691.490 623 C 691.078 621.625, 689.675 618.479, 688.371 616.008 C 687.067 613.537, 686 610.962, 686 610.285 C 686 608.951, 683.126 602.178, 679.514 595 C 678.268 592.525, 676.681 588.700, 675.986 586.500 C 675.290 584.300, 672.816 578.675, 670.487 574 C 668.157 569.325, 665.918 563.925, 665.510 562 C 665.103 560.075, 664.180 557.375, 663.459 556 C 660.486 550.327, 656.177 540.314, 655.571 537.670 C 655.214 536.113, 653.642 532.063, 652.078 528.670 C 644.554 512.345, 641 504.236, 641 503.393 C 641 502.886, 640.167 500.902, 639.149 498.985 C 638.131 497.068, 636.521 493.143, 635.572 490.262 C 634.623 487.381, 633.431 484.767, 632.924 484.453 C 632.416 484.139, 631.986 483.121, 631.969 482.191 C 631.951 481.261, 630.601 477.811, 628.969 474.525 C 627.336 471.239, 626 468.074, 626 467.492 C 626 466.422, 615.870 443.162, 613.828 439.542 C 613.220 438.464, 611.715 434.639, 610.483 431.042 C 605.602 416.784, 604.583 414.344, 601.797 410.250 L 598.904 406 528.643 406 C 474 406, 458.007 406.278, 456.696 407.250 M 665.544 408.365 C 664.145 409.764, 663 412.054, 663 413.453 C 663 415.980, 667.644 427.170, 675.056 442.500 C 677.183 446.900, 680.921 455.225, 683.363 461 C 685.804 466.775, 688.519 472.850, 689.395 474.500 C 690.272 476.150, 691.264 478.946, 691.599 480.714 C 691.935 482.482, 692.837 484.450, 693.605 485.087 C 694.372 485.724, 695 486.764, 695 487.398 C 695 488.032, 696.336 491.239, 697.969 494.525 C 699.601 497.811, 700.951 500.865, 700.969 501.312 C 701 502.125, 704.429 509.996, 708.022 517.500 C 709.075 519.700, 711.353 524.875, 713.084 529 C 714.815 533.125, 717.304 538.876, 718.616 541.780 C 719.927 544.683, 721 547.569, 721 548.192 C 721 548.815, 722.070 551.164, 723.379 553.412 C 724.687 555.660, 726.066 558.931, 726.443 560.681 C 726.820 562.430, 727.775 564.398, 728.564 565.053 C 729.354 565.709, 730 566.798, 730 567.474 C 730 568.149, 731.069 570.712, 732.374 573.168 C 733.680 575.624, 735.084 578.729, 735.494 580.067 C 736.315 582.748, 740.512 592.386, 742.189 595.441 C 742.776 596.508, 744.802 601.233, 746.693 605.941 C 748.584 610.648, 751.163 616.300, 752.424 618.500 C 753.685 620.700, 755.038 623.834, 755.431 625.464 C 756.139 628.399, 760.421 638.123, 764.095 645.136 C 765.143 647.136, 766 649.337, 766 650.027 C 766 650.716, 766.878 653.130, 767.951 655.390 C 769.024 657.651, 771.300 662.875, 773.008 667 C 784.869 695.643, 785.431 696.339, 793.539 692.432 C 802.775 687.981, 802.005 695.631, 801.931 609 C 801.894 566.925, 802.155 531.747, 802.510 530.828 C 803.598 528.005, 810.346 526.104, 822.186 525.284 C 836.557 524.288, 859.711 524.702, 867.500 526.094 C 875.712 527.562, 889.088 531.501, 893.695 533.810 C 895.788 534.858, 898.830 536.037, 900.456 536.429 C 907.777 538.194, 927.926 552.918, 940.237 565.500 C 947.045 572.458, 948.329 574.057, 954.695 583.500 C 959.075 589.998, 960.450 592.418, 966.861 604.902 C 970.459 611.908, 975.085 628.345, 976.599 639.500 C 979.799 663.073, 976.781 689.066, 968.762 707 C 964.099 717.427, 959.588 726.424, 958.278 727.909 C 956.675 729.725, 952.663 735.210, 949 740.590 C 944.450 747.275, 922.592 767.608, 916.658 770.677 C 915.065 771.501, 911.469 773.823, 908.668 775.837 C 905.867 777.852, 901.308 780.259, 898.537 781.186 C 895.767 782.113, 889.675 784.281, 885 786.005 C 870.425 791.378, 861.797 792.486, 830.729 792.972 C 829.754 792.988, 828.474 794.061, 827.883 795.358 C 826.978 797.343, 827.472 799.108, 830.993 806.486 C 833.295 811.310, 835.820 817.072, 836.603 819.292 C 837.386 821.511, 838.412 823.816, 838.883 824.414 C 839.354 825.011, 840.314 827.300, 841.017 829.500 C 841.719 831.700, 843.128 835.068, 844.147 836.985 C 845.166 838.902, 846 841.164, 846 842.013 C 846 842.861, 846.611 844.443, 847.358 845.527 C 848.104 846.612, 849.288 849.300, 849.988 851.500 C 850.688 853.700, 851.690 856.041, 852.214 856.703 C 853.167 857.906, 857.490 868.628, 861.204 879 C 862.287 882.025, 863.810 885.210, 864.587 886.079 C 865.364 886.947, 866.003 888.297, 866.006 889.079 C 866.010 889.860, 866.635 891.694, 867.397 893.153 C 868.158 894.613, 869.339 897.538, 870.021 899.653 C 870.703 901.769, 871.707 904.063, 872.253 904.750 C 873.665 906.529, 888.664 906.356, 898.500 904.447 C 902.900 903.594, 910.100 902.476, 914.500 901.963 C 918.900 901.450, 924.999 900.151, 928.052 899.076 C 931.106 898.001, 936.056 896.817, 939.052 896.446 C 942.049 896.074, 945.400 895.212, 946.500 894.530 C 947.600 893.848, 950.750 892.589, 953.500 891.732 C 959.642 889.818, 970.297 885.521, 975 883.061 C 976.925 882.053, 979.600 880.895, 980.944 880.486 C 982.287 880.077, 985.517 878.245, 988.121 876.415 C 990.725 874.585, 994.453 872.420, 996.405 871.604 C 998.358 870.788, 1000.528 869.636, 1001.228 869.043 C 1003.670 866.974, 1009.529 863.065, 1013.250 861.020 C 1015.313 859.887, 1017 858.563, 1017 858.078 C 1017 857.594, 1018.688 856.211, 1020.750 855.005 C 1024.944 852.552, 1026.282 851.353, 1040.606 837.206 C 1049.755 828.170, 1061.788 814.478, 1066.273 808 C 1075.268 795.008, 1078.691 789.411, 1081.563 783 C 1082.426 781.075, 1085.076 775.450, 1087.453 770.500 C 1094.454 755.919, 1098.816 744.189, 1101.458 732.835 C 1102.183 729.719, 1103.127 726.603, 1103.556 725.910 C 1105.249 723.170, 1110.061 691.579, 1111.181 675.851 C 1112.390 658.862, 1111.458 634.978, 1109.078 622 C 1108.524 618.975, 1107.574 612.675, 1106.967 608 C 1105.914 599.889, 1105.064 596.466, 1099.270 577 C 1096.592 568.005, 1090.340 551.183, 1089.048 549.500 C 1088.626 548.950, 1087.467 546.250, 1086.471 543.500 C 1085.476 540.750, 1084.079 537.809, 1083.369 536.963 C 1082.658 536.118, 1081.369 533.734, 1080.505 531.665 C 1078.956 527.960, 1067.557 509.965, 1063.553 504.906 C 1062.424 503.480, 1060.150 500.563, 1058.500 498.424 C 1050.261 487.746, 1030.751 468.098, 1021 460.660 C 1011.444 453.371, 997.296 443.935, 991.500 440.985 C 989.300 439.866, 986.375 438.302, 985 437.509 C 981.741 435.632, 977.357 433.449, 973 431.534 C 971.075 430.687, 967.836 429.096, 965.802 427.998 C 963.768 426.899, 961.561 426, 960.898 426 C 960.235 426, 957.362 424.897, 954.513 423.550 C 949.313 421.089, 938.371 417.772, 927.859 415.469 C 924.756 414.789, 920.031 413.538, 917.359 412.688 C 914.686 411.838, 904.842 410.204, 895.483 409.056 C 879.205 407.060, 873.963 406.971, 774.902 407.018 C 717.943 407.046, 670.608 406.787, 669.714 406.444 C 668.700 406.055, 667.132 406.777, 665.544 408.365" stroke="none" fill="#b92f27" fill-rule="evenodd"/><path d="M 625 1.595 C 461.966 14.667, 312.386 83.457, 197.992 197.971 C 106.715 289.345, 45.001 401.380, 16.134 528.118 C -2.940 611.855, -5.277 706.113, 9.603 791.476 C 31.067 914.614, 85.229 1027.207, 169.070 1122.982 C 231.991 1194.858, 314.864 1255.735, 401.500 1293.721 C 473.685 1325.371, 540.874 1342.499, 623 1350.185 C 640.963 1351.866, 711.037 1351.866, 729 1350.185 C 811.126 1342.499, 878.315 1325.371, 950.500 1293.721 C 981.394 1280.176, 1005.443 1267.298, 1036.500 1247.668 C 1141.734 1181.156, 1226.238 1087.568, 1282.250 975.500 C 1319.835 900.301, 1344.606 810.019, 1350.021 728.500 C 1350.642 719.150, 1351.566 710.719, 1352.075 709.764 C 1353.196 707.658, 1353.304 638.973, 1352.183 640.738 C 1351.751 641.418, 1350.839 633.993, 1350.156 624.238 C 1345.667 560.085, 1330.187 492.268, 1305.704 429.500 C 1262.252 318.096, 1187.335 217.479, 1093 143.826 C 985.882 60.193, 861.284 12.063, 724.500 1.483 C 701.124 -0.325, 648.207 -0.266, 625 1.595 M 456.696 407.250 C 455.768 407.938, 453.390 412.550, 451.410 417.500 C 449.430 422.450, 446.980 428.300, 445.965 430.500 C 438.762 446.122, 436.581 451.124, 434.968 455.707 C 433.961 458.572, 431.342 464.647, 429.149 469.207 C 426.956 473.768, 424.841 479.075, 424.450 481 C 424.059 482.925, 422.898 485.573, 421.870 486.885 C 420.841 488.197, 420 489.701, 420 490.227 C 420 490.754, 416.674 498.681, 412.608 507.842 C 405.321 524.264, 401.252 533.724, 396.411 545.500 C 395.055 548.800, 393.057 553.164, 391.972 555.198 C 390.888 557.232, 390 559.532, 390 560.309 C 390 561.085, 388.949 563.270, 387.665 565.162 C 386.380 567.055, 385.040 570.050, 384.686 571.818 C 384.333 573.585, 382.950 577.387, 381.613 580.266 C 374.272 596.074, 373 599.049, 373 600.414 C 373 601.237, 371.875 603.569, 370.500 605.595 C 369.125 607.621, 368 610.026, 368 610.940 C 368 611.853, 367.604 613.028, 367.121 613.550 C 366.637 614.073, 365.666 616.298, 364.962 618.495 C 364.259 620.692, 362.629 624.472, 361.342 626.894 C 360.054 629.316, 358.990 632.018, 358.978 632.899 C 358.966 633.780, 358.076 635.625, 357 637 C 355.924 638.375, 355.030 640.175, 355.013 641 C 354.996 641.825, 353.875 644.750, 352.522 647.500 C 351.169 650.250, 350.048 652.836, 350.031 653.247 C 349.994 654.133, 345.041 665.087, 340.922 673.390 C 339.315 676.630, 338 680.159, 338 681.233 C 338 682.306, 337.100 684.329, 336 685.727 C 334.900 687.126, 334 688.896, 334 689.660 C 334 690.425, 332.038 695.202, 329.640 700.276 C 327.241 705.349, 324.938 710.625, 324.520 712 C 323.539 715.233, 320.394 722.548, 318.070 727 C 317.066 728.925, 315.678 732.300, 314.987 734.500 C 314.296 736.700, 311.765 742.677, 309.363 747.783 C 306.961 752.889, 304.577 758.929, 304.065 761.206 C 303.554 763.482, 302.465 765.720, 301.646 766.178 C 300.827 766.637, 299.836 768.472, 299.445 770.256 C 299.054 772.040, 297.893 775.068, 296.867 776.985 C 295.840 778.902, 295 780.868, 295 781.355 C 295 781.842, 293.033 786.348, 290.628 791.370 C 288.223 796.391, 285.464 802.975, 284.496 806 C 283.527 809.025, 282.384 811.950, 281.955 812.500 C 281.526 813.050, 279.543 817.325, 277.548 822 C 275.554 826.675, 272.853 832.750, 271.546 835.500 C 265.257 848.737, 264 851.624, 264 852.827 C 264 854.155, 259.689 863.828, 255.396 872.135 C 254.078 874.685, 253 877.430, 253 878.236 C 253 879.043, 251.875 881.818, 250.500 884.404 C 248.650 887.884, 248 890.634, 248 894.988 C 248 904.403, 250.737 909.265, 258.188 913.086 C 261.762 914.919, 267.116 914.979, 431.146 915.012 L 600.416 915.046 603.333 912.128 L 606.250 909.211 603.733 903.856 C 602.348 900.910, 600.246 896.250, 599.060 893.500 C 597.875 890.750, 596.092 886.925, 595.098 885 C 594.105 883.075, 592.980 880.150, 592.598 878.500 C 592.217 876.850, 590.818 873.250, 589.490 870.500 C 588.162 867.750, 585.442 861.225, 583.445 856 C 581.448 850.775, 579.181 845.790, 578.407 844.921 C 577.633 844.053, 577 842.553, 577 841.589 C 577 839.785, 572.823 829.415, 568.465 820.400 C 567.109 817.595, 565.996 814.445, 565.991 813.400 C 565.986 812.355, 564.875 809.250, 563.522 806.500 C 562.169 803.750, 561.048 800.768, 561.031 799.872 C 561.014 798.977, 560.328 797.687, 559.507 797.006 C 558.686 796.325, 557.526 793.907, 556.929 791.634 C 556.333 789.360, 553.404 782.034, 550.422 775.353 C 547.440 768.673, 544.998 762.823, 544.997 762.353 C 544.992 761.227, 539.655 748.320, 537.615 744.500 C 536.733 742.850, 536.010 741.007, 536.006 740.405 C 536.003 739.803, 535.148 738.539, 534.107 737.597 C 532.289 735.951, 532.077 736.112, 528.688 741.692 C 526.749 744.887, 524.840 748.850, 524.446 750.500 C 524.053 752.150, 523.122 754.204, 522.378 755.065 C 521.634 755.926, 520.501 758.176, 519.860 760.065 C 519.219 761.954, 517.863 764.694, 516.847 766.154 C 515.831 767.614, 515 769.380, 515 770.079 C 515 770.777, 513.175 774.894, 510.944 779.227 C 508.713 783.560, 505.125 791.419, 502.971 796.693 C 500.817 801.967, 498.425 807.006, 497.654 807.891 C 496.883 808.776, 495.685 811.300, 494.990 813.500 C 493.199 819.172, 489.459 826.374, 487.427 828.063 C 486.055 829.203, 480.762 829.565, 461.832 829.816 C 438.115 830.129, 437.932 830.115, 432.449 827.605 C 426.488 824.876, 424.694 822.192, 423.393 814.058 C 422.651 809.414, 423.342 807.378, 431.095 791.380 C 433.793 785.814, 436.015 780.864, 436.034 780.380 C 436.053 779.896, 436.937 777.700, 438 775.500 C 439.063 773.300, 439.949 770.825, 439.970 770 C 439.991 769.175, 440.962 766.933, 442.130 765.019 C 443.297 763.104, 444.879 759.729, 445.646 757.519 C 446.963 753.725, 447.889 751.632, 453.620 739.500 C 454.919 736.750, 456.280 733.150, 456.644 731.500 C 457.007 729.850, 458.136 727.427, 459.152 726.115 C 460.169 724.803, 461.003 723.228, 461.006 722.615 C 461.010 722.002, 461.730 720.150, 462.608 718.500 C 463.485 716.850, 464.883 713.250, 465.713 710.500 C 466.544 707.750, 467.985 704.375, 468.916 703 C 470.723 700.330, 473.438 694.100, 474.581 690 C 474.964 688.625, 477.400 683, 479.993 677.500 C 482.586 672, 485.290 665.700, 486.001 663.500 C 486.712 661.300, 488.128 657.932, 489.147 656.015 C 490.166 654.098, 491.014 651.848, 491.031 651.015 C 491.048 650.182, 492.171 647.700, 493.526 645.500 C 494.881 643.300, 495.992 640.796, 495.995 639.935 C 495.998 639.074, 497.964 634.574, 500.363 629.935 C 502.763 625.296, 505.530 618.462, 506.512 614.750 C 507.494 611.038, 508.623 608, 509.022 608 C 509.421 608, 511.203 604.288, 512.984 599.750 C 514.764 595.212, 517.249 589.250, 518.505 586.500 C 521.770 579.352, 524.785 571.903, 525.589 569 C 526.513 565.661, 531.990 556, 532.959 556 C 534.244 556, 538.706 563.248, 540.040 567.500 C 540.730 569.700, 542.128 573.068, 543.147 574.985 C 544.166 576.902, 545 579.263, 545 580.231 C 545 581.199, 546.834 586.381, 549.075 591.746 C 551.316 597.110, 553.839 603.525, 554.681 606 C 557.283 613.642, 561.184 623.448, 562.052 624.529 C 562.506 625.095, 564.287 629.595, 566.009 634.529 C 567.730 639.463, 569.806 644.733, 570.621 646.241 C 571.436 647.749, 572.782 651.271, 573.613 654.068 C 574.444 656.866, 575.994 660.582, 577.058 662.327 C 578.122 664.072, 578.996 666.175, 579 667 C 579.004 667.825, 580.354 671.200, 582 674.500 C 583.646 677.800, 584.994 681.331, 584.996 682.346 C 584.998 683.361, 585.834 685.386, 586.853 686.846 C 587.873 688.306, 588.977 691.235, 589.308 693.356 C 589.638 695.476, 590.716 698.401, 591.702 699.856 C 592.689 701.310, 594.448 705.200, 595.612 708.500 C 599.820 720.433, 600.251 721.561, 602.114 725.500 C 603.154 727.700, 604.004 730.169, 604.003 730.986 C 604.001 731.803, 605.108 734.728, 606.462 737.486 C 608.657 741.954, 610.408 746.363, 618.188 767 C 619.329 770.025, 621.328 774.756, 622.631 777.514 C 623.934 780.272, 625 782.994, 625 783.564 C 625 784.133, 627.218 789.656, 629.929 795.838 C 632.640 802.020, 635.159 808.523, 635.527 810.289 C 635.895 812.055, 636.759 814.400, 637.447 815.500 C 638.134 816.600, 639.281 819.300, 639.995 821.500 C 640.710 823.700, 642.128 827.068, 643.147 828.985 C 644.166 830.902, 645 833.007, 645 833.664 C 645 835.564, 658.832 869.982, 662.416 877 C 663.119 878.375, 665.450 884.852, 667.597 891.393 C 670.513 900.277, 672.149 903.768, 674.064 905.193 C 676.526 907.025, 679.193 907.100, 741.064 907.062 C 801.403 907.026, 805.584 906.912, 806.821 905.262 C 808.706 902.748, 807.680 897.945, 803.555 889.974 C 801.608 886.211, 798.932 880.290, 797.609 876.816 C 793.679 866.501, 789.830 857.633, 788.369 855.527 C 787.616 854.443, 787 852.618, 787 851.472 C 787 850.326, 785.875 847.864, 784.500 846 C 783.125 844.136, 782 841.683, 782 840.548 C 782 839.413, 780.933 836.463, 779.629 833.992 C 778.325 831.521, 776.925 828.375, 776.518 827 C 776.111 825.625, 775.175 823.150, 774.438 821.500 C 772.806 817.845, 769.340 809.089, 767.115 803 C 766.211 800.525, 764.690 797.387, 763.736 796.027 C 762.781 794.668, 762 793.168, 762 792.695 C 762 791.768, 757.127 780.081, 753.951 773.390 C 752.878 771.130, 752 768.603, 752 767.775 C 752 766.947, 751.185 765.197, 750.189 763.885 C 749.193 762.573, 747.809 759.475, 747.113 757 C 746.417 754.525, 745.012 750.700, 743.989 748.500 C 739.999 739.911, 737.306 733.374, 736.607 730.579 C 736.205 728.972, 735.004 726.549, 733.938 725.194 C 732.872 723.839, 731.997 721.778, 731.994 720.615 C 731.990 719.452, 731.267 717.150, 730.385 715.500 C 728.312 711.620, 723.385 699.953, 720.983 693.242 C 719.949 690.350, 718.404 686.988, 717.551 685.770 C 716.698 684.552, 716 682.978, 716 682.274 C 716 681.569, 714.029 676.832, 711.621 671.746 C 709.212 666.661, 706.921 661.375, 706.529 660 C 705.901 657.794, 698.871 640.706, 693.983 629.500 C 693.023 627.300, 691.902 624.375, 691.490 623 C 691.078 621.625, 689.675 618.479, 688.371 616.008 C 687.067 613.537, 686 610.962, 686 610.285 C 686 608.951, 683.126 602.178, 679.514 595 C 678.268 592.525, 676.681 588.700, 675.986 586.500 C 675.290 584.300, 672.816 578.675, 670.487 574 C 668.157 569.325, 665.918 563.925, 665.510 562 C 665.103 560.075, 664.180 557.375, 663.459 556 C 660.486 550.327, 656.177 540.314, 655.571 537.670 C 655.214 536.113, 653.642 532.063, 652.078 528.670 C 644.554 512.345, 641 504.236, 641 503.393 C 641 502.886, 640.167 500.902, 639.149 498.985 C 638.131 497.068, 636.521 493.143, 635.572 490.262 C 634.623 487.381, 633.431 484.767, 632.924 484.453 C 632.416 484.139, 631.986 483.121, 631.969 482.191 C 631.951 481.261, 630.601 477.811, 628.969 474.525 C 627.336 471.239, 626 468.074, 626 467.492 C 626 466.422, 615.870 443.162, 613.828 439.542 C 613.220 438.464, 611.715 434.639, 610.483 431.042 C 605.602 416.784, 604.583 414.344, 601.797 410.250 L 598.904 406 528.643 406 C 474 406, 458.007 406.278, 456.696 407.250 M 665.544 408.365 C 664.145 409.764, 663 412.054, 663 413.453 C 663 415.980, 667.644 427.170, 675.056 442.500 C 677.183 446.900, 680.921 455.225, 683.363 461 C 685.804 466.775, 688.519 472.850, 689.395 474.500 C 690.272 476.150, 691.264 478.946, 691.599 480.714 C 691.935 482.482, 692.837 484.450, 693.605 485.087 C 694.372 485.724, 695 486.764, 695 487.398 C 695 488.032, 696.336 491.239, 697.969 494.525 C 699.601 497.811, 700.951 500.865, 700.969 501.312 C 701 502.125, 704.429 509.996, 708.022 517.500 C 709.075 519.700, 711.353 524.875, 713.084 529 C 714.815 533.125, 717.304 538.876, 718.616 541.780 C 719.927 544.683, 721 547.569, 721 548.192 C 721 548.815, 722.070 551.164, 723.379 553.412 C 724.687 555.660, 726.066 558.931, 726.443 560.681 C 726.820 562.430, 727.775 564.398, 728.564 565.053 C 729.354 565.709, 730 566.798, 730 567.474 C 730 568.149, 731.069 570.712, 732.374 573.168 C 733.680 575.624, 735.084 578.729, 735.494 580.067 C 736.315 582.748, 740.512 592.386, 742.189 595.441 C 742.776 596.508, 744.802 601.233, 746.693 605.941 C 748.584 610.648, 751.163 616.300, 752.424 618.500 C 753.685 620.700, 755.038 623.834, 755.431 625.464 C 756.139 628.399, 760.421 638.123, 764.095 645.136 C 765.143 647.136, 766 649.337, 766 650.027 C 766 650.716, 766.878 653.130, 767.951 655.390 C 769.024 657.651, 771.300 662.875, 773.008 667 C 784.869 695.643, 785.431 696.339, 793.539 692.432 C 802.775 687.981, 802.005 695.631, 801.931 609 C 801.894 566.925, 802.155 531.747, 802.510 530.828 C 803.598 528.005, 810.346 526.104, 822.186 525.284 C 836.557 524.288, 859.711 524.702, 867.500 526.094 C 875.712 527.562, 889.088 531.501, 893.695 533.810 C 895.788 534.858, 898.830 536.037, 900.456 536.429 C 907.777 538.194, 927.926 552.918, 940.237 565.500 C 947.045 572.458, 948.329 574.057, 954.695 583.500 C 959.075 589.998, 960.450 592.418, 966.861 604.902 C 970.459 611.908, 975.085 628.345, 976.599 639.500 C 979.799 663.073, 976.781 689.066, 968.762 707 C 964.099 717.427, 959.588 726.424, 958.278 727.909 C 956.675 729.725, 952.663 735.210, 949 740.590 C 944.450 747.275, 922.592 767.608, 916.658 770.677 C 915.065 771.501, 911.469 773.823, 908.668 775.837 C 905.867 777.852, 901.308 780.259, 898.537 781.186 C 895.767 782.113, 889.675 784.281, 885 786.005 C 870.425 791.378, 861.797 792.486, 830.729 792.972 C 829.754 792.988, 828.474 794.061, 827.883 795.358 C 826.978 797.343, 827.472 799.108, 830.993 806.486 C 833.295 811.310, 835.820 817.072, 836.603 819.292 C 837.386 821.511, 838.412 823.816, 838.883 824.414 C 839.354 825.011, 840.314 827.300, 841.017 829.500 C 841.719 831.700, 843.128 835.068, 844.147 836.985 C 845.166 838.902, 846 841.164, 846 842.013 C 846 842.861, 846.611 844.443, 847.358 845.527 C 848.104 846.612, 849.288 849.300, 849.988 851.500 C 850.688 853.700, 851.690 856.041, 852.214 856.703 C 853.167 857.906, 857.490 868.628, 861.204 879 C 862.287 882.025, 863.810 885.210, 864.587 886.079 C 865.364 886.947, 866.003 888.297, 866.006 889.079 C 866.010 889.860, 866.635 891.694, 867.397 893.153 C 868.158 894.613, 869.339 897.538, 870.021 899.653 C 870.703 901.769, 871.707 904.063, 872.253 904.750 C 873.665 906.529, 888.664 906.356, 898.500 904.447 C 902.900 903.594, 910.100 902.476, 914.500 901.963 C 918.900 901.450, 924.999 900.151, 928.052 899.076 C 931.106 898.001, 936.056 896.817, 939.052 896.446 C 942.049 896.074, 945.400 895.212, 946.500 894.530 C 947.600 893.848, 950.750 892.589, 953.500 891.732 C 959.642 889.818, 970.297 885.521, 975 883.061 C 976.925 882.053, 979.600 880.895, 980.944 880.486 C 982.287 880.077, 985.517 878.245, 988.121 876.415 C 990.725 874.585, 994.453 872.420, 996.405 871.604 C 998.358 870.788, 1000.528 869.636, 1001.228 869.043 C 1003.670 866.974, 1009.529 863.065, 1013.250 861.020 C 1015.313 859.887, 1017 858.563, 1017 858.078 C 1017 857.594, 1018.688 856.211, 1020.750 855.005 C 1024.944 852.552, 1026.282 851.353, 1040.606 837.206 C 1049.755 828.170, 1061.788 814.478, 1066.273 808 C 1075.268 795.008, 1078.691 789.411, 1081.563 783 C 1082.426 781.075, 1085.076 775.450, 1087.453 770.500 C 1094.454 755.919, 1098.816 744.189, 1101.458 732.835 C 1102.183 729.719, 1103.127 726.603, 1103.556 725.910 C 1105.249 723.170, 1110.061 691.579, 1111.181 675.851 C 1112.390 658.862, 1111.458 634.978, 1109.078 622 C 1108.524 618.975, 1107.574 612.675, 1106.967 608 C 1105.914 599.889, 1105.064 596.466, 1099.270 577 C 1096.592 568.005, 1090.340 551.183, 1089.048 549.500 C 1088.626 548.950, 1087.467 546.250, 1086.471 543.500 C 1085.476 540.750, 1084.079 537.809, 1083.369 536.963 C 1082.658 536.118, 1081.369 533.734, 1080.505 531.665 C 1078.956 527.960, 1067.557 509.965, 1063.553 504.906 C 1062.424 503.480, 1060.150 500.563, 1058.500 498.424 C 1050.261 487.746, 1030.751 468.098, 1021 460.660 C 1011.444 453.371, 997.296 443.935, 991.500 440.985 C 989.300 439.866, 986.375 438.302, 985 437.509 C 981.741 435.632, 977.357 433.449, 973 431.534 C 971.075 430.687, 967.836 429.096, 965.802 427.998 C 963.768 426.899, 961.561 426, 960.898 426 C 960.235 426, 957.362 424.897, 954.513 423.550 C 949.313 421.089, 938.371 417.772, 927.859 415.469 C 924.756 414.789, 920.031 413.538, 917.359 412.688 C 914.686 411.838, 904.842 410.204, 895.483 409.056 C 879.205 407.060, 873.963 406.971, 774.902 407.018 C 717.943 407.046, 670.608 406.787, 669.714 406.444 C 668.700 406.055, 667.132 406.777, 665.544 408.365 M 0.450 675.500 C 0.451 694.750, 0.585 702.483, 0.749 692.685 C 0.913 682.888, 0.912 667.138, 0.748 657.685 C 0.584 648.233, 0.450 656.250, 0.450 675.500" stroke="none" fill="#fbfbfb" fill-rule="evenodd"/></svg>