<svg xmlns="http://www.w3.org/2000/svg" width="24" height="24" viewBox="0 0 24 24"><g fill="none"><path d="m12.594 23.258l-.012.002l-.071.035l-.02.004l-.014-.004l-.071-.036q-.016-.004-.024.006l-.004.01l-.017.428l.005.02l.01.013l.104.074l.015.004l.012-.004l.104-.074l.012-.016l.004-.017l-.017-.427q-.004-.016-.016-.018m.264-.113l-.014.002l-.184.093l-.01.01l-.003.011l.018.43l.005.012l.008.008l.201.092q.019.005.029-.008l.004-.014l-.034-.614q-.005-.019-.02-.022m-.715.002a.02.02 0 0 0-.027.006l-.006.014l-.034.614q.001.018.017.024l.015-.002l.201-.093l.01-.008l.003-.011l.018-.43l-.003-.012l-.01-.01z"/><path fill="#ff0861" d="M12 2c5.523 0 10 4.477 10 10s-4.477 10-10 10S2 17.523 2 12S6.477 2 12 2M9.22 8h-.44a2 2 0 0 0-1.94 1.515l-1.31 5.243a1 1 0 1 0 1.94.485L7.78 14h2.44l.31 1.242a1 1 0 1 0 1.94-.485l-1.31-5.242A2 2 0 0 0 9.22 8M16 8h-2a1 1 0 0 0-1 1v6a1 1 0 0 0 1 1h2a3 3 0 0 0 3-3v-2a3 3 0 0 0-3-3m0 2a1 1 0 0 1 1 1v2a1 1 0 0 1-1 1h-1v-4zm-6.78 0l.5 2H8.28l.5-2z"/></g></svg>